<svg width="142" height="119" viewBox="0 0 142 119" fill="none" xmlns="http://www.w3.org/2000/svg">
<path d="M140.339 118.026L141.43 106.53L130.929 111.334L140.339 118.026ZM1.38965 4.25063C5.23129 2.80373 8.46021 2.45076 11.2356 2.88532C14.0058 3.31906 16.3991 4.54894 18.5559 6.38918C22.9189 10.1117 26.2367 16.253 29.5895 23.1153C32.9038 29.8987 36.2362 37.3498 40.6183 43.3299C45.0232 49.3411 50.5832 54.0034 58.4171 55.0867L58.6911 53.1055C51.5884 52.1234 46.4554 47.9119 42.2315 42.1477C37.9848 36.3524 34.7524 29.1263 31.3865 22.2374C28.0592 15.4274 24.5814 8.90119 19.854 4.86771C17.4656 2.82992 14.74 1.40965 11.545 0.909395C8.35531 0.40997 4.77296 0.839196 0.68472 2.37898L1.38965 4.25063ZM58.4171 55.0867C66.165 56.1581 74.3821 53.8775 81.8528 49.8747C89.3318 45.8675 96.149 40.0898 101.13 34.0283C106.083 28.0006 109.339 21.5447 109.444 16.1734C109.497 13.4516 108.739 10.9677 106.94 9.01041C105.153 7.06503 102.434 5.74556 98.7631 5.145L98.4402 7.11876C101.82 7.67176 104.072 8.84541 105.468 10.3637C106.852 11.8701 107.49 13.8204 107.444 16.1343C107.352 20.8342 104.435 26.8555 99.5845 32.7585C94.7619 38.6277 88.1459 44.234 80.9083 48.1118C73.6625 51.9941 65.8798 54.0996 58.6911 53.1055L58.4171 55.0867ZM98.7631 5.145C94.9407 4.51966 90.5297 5.64841 85.9538 7.92729C81.3596 10.2153 76.491 13.7163 71.7044 17.9999C62.132 26.5664 52.7791 38.3603 46.4995 50.1592C43.3588 56.0604 40.9721 61.9904 39.7194 67.5413C38.4685 73.0846 38.3336 78.3167 39.7762 82.776C41.2305 87.2716 44.2667 90.9084 49.1893 93.2387C54.0774 95.5527 60.7766 96.5579 69.5696 95.9446L69.4305 93.9494C60.829 94.5494 54.5103 93.5449 50.045 91.431C45.6142 89.3335 42.9614 86.1242 41.6791 82.1604C40.385 78.1603 40.4657 73.3197 41.6703 67.9816C42.8733 62.6512 45.1822 56.8913 48.2651 51.0989C54.4325 39.5107 63.6382 27.9024 73.0381 19.4903C77.7377 15.2846 82.4587 11.9022 86.8454 9.71756C91.2504 7.52377 95.2115 6.59055 98.4402 7.11876L98.7631 5.145ZM69.5696 95.9446C113.678 92.868 129.879 103.033 135.813 110.464L137.376 109.216C130.828 101.017 113.783 90.8558 69.4305 93.9494L69.5696 95.9446Z" fill="#1A1A80"/>
</svg>
