<svg width="335" height="232" viewBox="0 0 335 232" fill="none" xmlns="http://www.w3.org/2000/svg">
<rect width="335" height="232" fill="#FAFAFA" fill-opacity="0.01"/>
<mask id="mask0_2075_295" style="mask-type:luminance" maskUnits="userSpaceOnUse" x="0" y="0" width="335" height="232">
<rect width="335" height="232" fill="white"/>
</mask>
<g mask="url(#mask0_2075_295)">
<path fill-rule="evenodd" clip-rule="evenodd" d="M96.0945 58.3264L101.966 81.8126C101.966 81.8126 106.533 112.801 122.843 118.673L122.516 131.068L66.7367 155.207C66.7367 155.207 43.9028 181.629 38.0312 214.901L54.6673 222.404L44.229 274.269H289.204C289.204 274.269 295.727 261.548 294.423 254.045C293.118 246.542 289.53 188.805 289.53 188.805C289.53 188.805 294.423 181.629 294.423 173.8V168.255L296.38 165.645L294.423 159.448C294.423 159.448 289.856 152.271 278.113 157.164L277.46 155.533C277.46 155.533 279.091 142.485 278.113 139.55C277.134 136.614 273.546 133.678 273.546 133.678L273.22 143.79L272.241 157.817C272.241 157.817 270.284 164.341 270.61 168.907C270.936 173.474 273.872 184.891 276.482 188.153L276.808 189.784L263.434 182.282C263.434 182.282 268.327 169.56 266.696 162.057C265.065 154.555 256.584 126.502 255.931 116.716C255.279 106.93 255.931 105.951 255.931 105.951C255.931 105.951 259.52 101.058 258.215 93.5557C256.91 86.0532 248.103 68.1123 224.616 64.1979C201.13 60.2836 195.911 72.6791 195.911 72.6791L192.649 83.4436C192.649 83.4436 185.146 86.0532 181.558 90.6199C177.97 95.1867 173.077 101.058 174.708 114.106C176.339 127.154 174.708 137.266 174.708 137.266L162.965 130.742L159.051 128.133C159.051 128.133 151.222 108.235 158.398 95.1867C158.398 95.1867 159.703 98.1225 163.617 97.4701C167.532 96.8177 171.772 95.5129 169.815 91.2723C169.815 91.2723 173.403 90.2937 174.708 87.6842C176.013 85.0746 173.403 81.8126 173.403 81.8126C173.403 81.8126 177.97 83.1174 181.558 79.5292C185.146 75.941 183.515 70.0695 180.58 67.1337L184.168 64.1979L161.66 48.5404L131.976 37.4497L99.6826 45.9308L96.0945 58.3264Z" fill="#FAFAFA"/>
<path d="M41 111.121C41.1579 111.831 42.1035 115.766 45.893 117.972C46.3839 118.257 51.2208 120.969 55.3527 118.298C59.2573 115.774 60.506 109.764 58.6147 107.859C57.6175 106.855 55.5445 106.792 54.5372 107.696C53.1541 108.938 53.9063 111.89 54.8634 113.568C57.0414 117.387 62.2166 118.001 63.3445 118.135C72.9765 119.277 80.7237 109.209 81.6116 108.023" stroke="#97A4F7" stroke-width="2" stroke-linecap="round" stroke-linejoin="round"/>
<path d="M302.414 203.974C303.131 203.396 304.831 202.202 306.981 202.343C311.263 202.623 314.616 208.017 313.505 210.172C312.604 211.917 308.369 212.324 307.307 210.824C305.784 208.672 310.441 202.093 315.462 198.429C320.518 194.739 325.924 194.017 328.836 193.862" stroke="#97A4F7" stroke-width="2" stroke-linecap="round" stroke-linejoin="round"/>
<path fill-rule="evenodd" clip-rule="evenodd" d="M113.709 45.9309C112.823 46.2578 111.128 47.0211 109.636 48.7075C107.692 50.9045 107.28 53.3249 107.171 54.2555C104.798 53.5927 102.551 54.7008 101.931 56.413C101.346 58.029 102.416 59.6146 102.547 59.8031C102.753 61.6527 102.958 63.5019 103.163 65.3511C102.626 66.3428 101.924 67.9216 101.623 69.9743C101.27 72.3826 101.627 74.36 101.931 75.5223C100.257 77.0257 97.8507 77.0776 96.3828 75.8309C95.2888 74.9015 94.8278 73.3456 95.1498 71.8239C93.8143 70.7719 93.2089 69.0724 93.6088 67.5086C94.1007 65.585 95.8704 64.8191 96.0746 64.7349C93.9504 65.434 91.6777 64.9646 90.2183 63.5019C88.8098 62.0904 88.693 60.2892 88.6774 59.8031C84.1546 57.5282 83.5437 54.8221 83.4377 54.2555C82.5915 49.7377 88.023 43.4068 97.9238 41.0021C94.4622 38.8674 92.5529 35.2584 92.9923 31.7554C93.0794 31.0619 93.4979 27.8191 96.3828 26.2074C99.0433 24.7212 101.811 25.7347 102.239 25.8991C102.382 25.4082 102.948 23.6904 104.705 22.5086C106.753 21.1308 108.904 21.502 109.328 21.5842C109.448 19.7324 110.229 18.8301 110.561 18.5019C112.392 16.6935 116.305 16.8194 119.807 19.4267C119.538 18.8285 118.843 17.067 119.499 15.1118C119.689 14.5474 119.986 13.6605 120.732 13.2622C121.942 12.6157 123.994 13.4345 125.664 15.4197C125.839 14.9846 126.492 13.5183 128.129 12.6457C128.275 12.5684 130.409 11.4717 132.444 12.3375C132.445 12.3378 133.054 12.5968 135.527 15.1118C136.237 14.9846 138.13 14.7468 140.15 15.728C143.157 17.189 144.025 20.1773 144.157 20.6594C145.377 20.7912 147.194 20.9957 149.396 21.2759C154.173 21.884 156.561 22.188 157.41 22.5086C163.139 24.673 165.304 31.8751 165.732 33.2966C167.227 38.2692 166.336 42.5894 165.732 44.7005C166.428 44.6796 169.457 44.6633 171.588 46.858C174.065 49.4085 174.339 53.9238 171.896 57.6457C172.351 57.6369 174.88 57.6297 176.52 59.4952C178.333 61.5578 178.335 65.0882 176.212 67.8168C177.015 68.2582 179.307 69.6498 179.602 71.8239C180.005 74.7906 176.619 78.6714 170.794 79.5293C170.883 79.084 171.183 77.3304 170.141 75.6149C168.663 73.1792 165.814 73.0151 165.575 73.0053C166.424 72.4811 167.696 71.5593 168.837 70.0696C170.187 68.3068 171.835 65.1185 170.794 63.8718C170.171 63.1264 168.894 63.4432 168.198 62.2689C167.98 61.9026 168.056 61.7894 167.858 61.2622C167.391 60.0188 166.379 59.0777 165.575 58.6526C164.616 58.1464 163.618 58.1966 161.725 58.5704C158.211 59.2646 157.352 59.9411 154.484 60.6098C151.448 61.3177 149.63 61.7147 148.164 60.7279C146.857 59.8491 146.974 58.6451 145.698 58.2622C144.336 57.8531 143.539 59.0392 141.691 59.187C139.724 59.3442 138.16 58.2067 137.376 57.6457C134.302 55.4478 133.835 51.763 133.677 50.5567C133.373 48.2287 133.815 46.2604 134.26 44.9523C129.114 46.8811 127.27 48.9453 126.588 50.5567C126.295 51.2499 125.54 53.4648 123.814 53.9472C123.23 54.1107 122.862 53.9831 122.581 54.2555C122.102 54.7197 122.187 56.0444 124.122 59.4952C123.499 59.582 121.666 59.7523 119.907 58.6526C117.909 57.404 116.795 55.0103 116.971 52.4549C116.384 51.8668 115.651 51.0075 115.014 49.8453C114.171 48.3083 113.846 46.8815 113.709 45.9309Z" fill="#D9DEFF"/>
<path fill-rule="evenodd" clip-rule="evenodd" d="M164.27 91.5985C163.307 92.4343 162.405 93.0765 161.66 93.5557C162.781 94.7343 164.551 94.993 165.901 94.2081C167.122 93.498 167.781 92.0601 167.532 90.6199C168.355 90.4911 169.744 90.1271 170.794 88.989C172.6 87.0301 172.687 83.5542 170.794 80.5078C170.61 81.1752 169.17 86.2668 166.553 89.3152C165.537 90.4986 164.27 91.5985 164.27 91.5985Z" fill="#D9DEFF"/>
<path fill-rule="evenodd" clip-rule="evenodd" d="M78.1533 196.308C79.1156 202.555 79.9161 209.313 80.4367 216.532C80.8927 222.854 81.0852 228.849 81.0891 234.473C89.2864 237.726 101.215 241.427 115.992 242.628C129.71 243.743 141.288 242.331 149.591 240.671C149.764 239.556 150.074 237.71 150.569 235.452C152.306 227.521 153.959 225.284 156.115 216.859C157.401 211.831 157.013 211.818 158.072 208.704C159.754 203.757 161.986 200.012 163.617 197.613C155.142 198.426 146.214 198.999 136.869 199.244C115.321 199.808 95.6163 198.516 78.1533 196.308Z" fill="#EFE9FD"/>
<path fill-rule="evenodd" clip-rule="evenodd" d="M69.9982 186.196C69.7186 190.323 69.7796 197.046 72.2816 204.79C74.5636 211.852 77.9786 216.985 80.4365 220.121C80.0017 213.706 79.5665 207.291 79.1317 200.875C78.0566 199.726 76.9537 198.425 75.8697 196.961C73.0243 193.117 71.1953 189.343 69.9982 186.196Z" fill="#EFE9FD"/>
<path d="M69.5098 184.402C70.5441 187.441 72.0802 191.046 74.4027 194.84C75.6951 196.952 77.0319 198.796 78.3171 200.386" stroke="#3C0378" stroke-width="2" stroke-linecap="round" stroke-linejoin="round"/>
<path d="M82.8838 196.797C94.9162 197.922 108.008 198.661 122.028 198.755C135.416 198.844 147.96 198.334 159.54 197.45" stroke="#3C0378" stroke-width="2" stroke-linecap="round" stroke-linejoin="round"/>
<path d="M76.6855 185.054C78.02 193.516 79.1382 202.442 79.9475 211.802C81.923 234.646 81.6721 255.589 80.2737 274.106" stroke="#3C0378" stroke-width="2" stroke-linecap="round" stroke-linejoin="round"/>
<path d="M78.3167 229.417C77.1045 229.525 75.2834 229.613 73.0975 229.417C65.2776 228.718 60.5559 225.088 52.5471 220.61C49.1148 218.691 44.1674 216.105 37.8682 213.434C41.7845 198.14 46.9955 186.202 51.2423 177.878C60.1269 160.464 66.2154 156.08 68.857 154.392C70.6292 153.259 71.9803 152.617 84.5144 147.215C91.9893 143.995 98.2523 141.317 102.782 139.387" stroke="#3C0378" stroke-width="2" stroke-linecap="round" stroke-linejoin="round"/>
<path d="M105.391 138.082C107.58 140.957 111.558 145.333 117.786 148.194C131.042 154.284 144.6 148.968 150.732 146.563C154.932 144.917 161.192 141.87 167.694 136.125" stroke="#3C0378" stroke-width="2" stroke-linecap="round" stroke-linejoin="round"/>
<path d="M112.241 133.515C114.862 137.252 117.674 139.247 119.744 140.365C130.286 146.064 143.183 140.703 151.059 137.43C156.388 135.215 160.472 132.712 163.128 130.906" stroke="#3C0378" stroke-width="2" stroke-linecap="round" stroke-linejoin="round"/>
<path d="M169.979 135.798C171.61 136.342 173.24 136.886 174.871 137.429" stroke="#3C0378" stroke-width="2" stroke-linecap="round" stroke-linejoin="round"/>
<path d="M103.107 65.0136C104.597 64.5902 107.592 63.9532 111.262 64.6874C114.776 65.3904 117.221 67.0129 118.439 67.9494" stroke="#3C0378" stroke-width="2" stroke-linecap="round" stroke-linejoin="round"/>
<path d="M122.027 69.2544C122.715 70.2144 124.168 72.5262 124.311 75.7783C124.523 80.6133 121.679 83.8925 121.049 84.5857C122.462 85.8905 123.876 87.1953 125.289 88.5001" stroke="#3C0378" stroke-width="2" stroke-linecap="round" stroke-linejoin="round"/>
<path d="M141.599 71.5376C141.49 73.1686 141.381 74.7996 141.272 76.4306" stroke="#3C0378" stroke-width="2" stroke-linecap="round" stroke-linejoin="round"/>
<path d="M112.241 71.8638C112.133 73.821 112.024 75.7781 111.915 77.7353" stroke="#3C0378" stroke-width="2" stroke-linecap="round" stroke-linejoin="round"/>
<path d="M138.011 66.9709C139.863 66.4721 141.936 66.0141 144.208 65.6661C147.081 65.226 149.717 65.0469 152.037 65.0137" stroke="#3C0378" stroke-width="2" stroke-linecap="round" stroke-linejoin="round"/>
<path d="M165.412 82.3022C165.224 80.0371 164.172 78.4596 163.129 78.3878C161.765 78.2942 160.737 80.7932 160.519 81.3236C159.508 83.7799 159.653 87.0719 160.845 87.5214C161.585 87.8003 162.63 86.9482 163.129 86.2166C164.15 84.7174 163.825 82.3355 162.15 80.345" stroke="#3C0378" stroke-width="2" stroke-linecap="round" stroke-linejoin="round"/>
<path d="M164.759 72.8423C166.093 73.0002 168.572 73.5107 169.978 75.4519C172.749 79.2772 169.048 85.4749 168.021 87.195C165.206 91.9108 160.988 94.2686 158.562 95.3499" stroke="#3C0378" stroke-width="2" stroke-linecap="round" stroke-linejoin="round"/>
<path d="M101.803 80.9976C103.044 89.3404 105.454 95.7476 107.348 99.917C110.432 106.706 113.358 112.934 120.07 117.206C122.131 118.517 125.657 120.7 130.508 120.794C136.675 120.913 141.103 117.583 144.208 115.248C152.235 109.213 155.753 101.105 157.256 96.6551" stroke="#3C0378" stroke-width="2" stroke-linecap="round" stroke-linejoin="round"/>
<path d="M122.68 118.51V127.97V135.146" stroke="#3C0378" stroke-width="2" stroke-linecap="round" stroke-linejoin="round"/>
<path d="M155.952 100.243C155.575 103.895 155.417 108.442 155.952 113.617C156.563 119.536 157.897 124.504 159.214 128.296" stroke="#3C0378" stroke-width="2" stroke-linecap="round" stroke-linejoin="round"/>
<path d="M113.546 135.146C114.727 135.135 116.814 134.955 119.091 133.842C120.771 133.02 121.948 131.988 122.679 131.232" stroke="#3C0378" stroke-width="2" stroke-linecap="round" stroke-linejoin="round"/>
<path d="M134.749 44.1372C134.518 44.5544 131.897 49.4735 134.422 54.2493C134.969 55.2827 136.85 58.377 140.62 59.1423C143.955 59.8192 146.528 58.2201 147.144 57.8375C147.669 57.5113 150.488 55.7596 150.08 54.2493C149.743 53.0023 147.27 52.1591 146.166 52.9445C144.692 53.9929 145.153 58.3007 147.144 60.1209C149.673 62.4327 155.406 61.4058 161.171 57.1851" stroke="#97A4F7" stroke-width="2" stroke-linecap="round" stroke-linejoin="round"/>
<path d="M162.149 58.816C163.988 58.0905 165.956 58.3427 167.042 59.4684C169.139 61.6405 167.106 66.189 165.738 66.3185C164.936 66.3942 163.878 65.002 164.107 64.0351C164.481 62.4541 168.455 61.3528 169.978 62.7304C171.259 63.8893 171.12 67.088 168.673 69.9067" stroke="#97A4F7" stroke-width="2" stroke-linecap="round" stroke-linejoin="round"/>
<path d="M126.92 27.5008C125.73 27.1795 122.382 26.4547 119.092 28.1532C114.292 30.6307 112.348 36.8529 113.873 41.2011C114.071 41.7664 115.244 45.1116 117.787 45.4417C120.459 45.7884 123.54 42.6648 123.006 40.5487C122.577 38.846 119.77 37.6557 117.787 38.2653C114.425 39.2991 112.479 45.7985 114.851 50.0085C116.273 52.5322 119.603 54.8636 122.354 53.9228C124.039 53.3464 125.636 51.4989 125.29 50.0085C124.854 48.1344 121.396 47.0358 119.418 48.0513C116.746 49.4233 116.132 54.9843 118.766 57.8372C120.312 59.5126 122.513 59.7487 123.332 59.7944" stroke="#97A4F7" stroke-width="2" stroke-linecap="round" stroke-linejoin="round"/>
<path d="M100.498 60.1207C100.195 59.5991 99.0336 57.4805 99.8458 55.8801C101.34 52.9362 108.464 53.8147 108.979 55.5539C109.289 56.5984 107.37 58.4757 106.37 58.1635C105.045 57.7499 104.559 53.2529 106.37 50.0086C107.539 47.9121 109.377 46.8611 110.284 46.4204" stroke="#97A4F7" stroke-width="2" stroke-linecap="round" stroke-linejoin="round"/>
<path d="M93.322 43.4844C91.9999 43.3461 88.8228 43.2055 85.8195 45.1154C82.2434 47.3899 78.771 52.6629 80.9265 56.8585C82.6531 60.2193 87.4191 61.7766 90.7124 60.4467C92.377 59.7747 94.2657 58.1225 93.9744 56.8585C93.5794 55.145 89.1268 53.9237 87.1243 55.5537C84.8836 57.3771 85.3145 63.0918 88.7552 65.0134C90.824 66.1688 93.6753 65.7823 95.9316 64.0348" stroke="#97A4F7" stroke-width="2" stroke-linecap="round" stroke-linejoin="round"/>
<path d="M91.0385 66.9707C90.9459 67.2382 89.9656 70.2056 91.6909 72.1899C92.5152 73.1381 94.2346 74.1803 95.2791 73.4947C96.2329 72.8687 96.4462 70.9177 95.6053 70.2327C95.1052 69.8256 94.2339 69.867 93.6481 70.2327C92.1097 71.1924 91.6553 74.9365 93.6481 76.7566C94.8593 77.8631 96.7714 78.0725 98.541 77.409" stroke="#97A4F7" stroke-width="2" stroke-linecap="round" stroke-linejoin="round"/>
<path d="M95.2792 39.8964C94.9171 39.6889 90.2587 36.9149 90.06 31.7414C90.0385 31.1784 89.9243 26.1873 93.6482 24.2389C97.0207 22.4742 101.618 24.2118 103.108 27.1747C104.236 29.4183 103.659 32.5201 102.782 32.72C101.883 32.9246 100.131 30.2103 99.8459 27.5009C99.615 25.3039 100.267 22.3222 102.456 20.6507C106.638 17.4566 114.146 20.792 114.525 23.5865C114.727 25.0775 112.975 26.9773 111.589 26.8485C108.984 26.6068 105.983 19.0494 108.653 16.4101C110.151 14.9295 113.476 15.2972 116.482 17.0625" stroke="#97A4F7" stroke-width="2" stroke-linecap="round" stroke-linejoin="round"/>
<path d="M149.428 19.6723C152.388 16.7036 155.009 16.1921 156.278 16.0841C164.637 15.3737 174.12 24.9528 173.24 34.025C172.906 37.4706 171.136 40.1406 169.652 41.8537C170.167 41.4467 172.711 39.5182 175.524 40.2228C179.135 41.1273 180.691 45.7482 180.417 49.0301C180.27 50.7834 179.602 52.1362 179.112 52.9445C179.976 52.9627 182.351 53.1356 184.005 54.9017C186.447 57.5106 185.655 61.8232 184.005 64.3614C182.971 65.9506 181.604 66.8395 180.743 67.2972" stroke="#97A4F7" stroke-width="2" stroke-linecap="round" stroke-linejoin="round"/>
<path d="M182.7 69.5806C182.964 69.9965 185.097 73.475 183.678 77.0831C182.261 80.6873 177.881 82.9426 173.24 81.9761C174.907 83.8276 175.286 86.444 174.219 88.5C172.952 90.9413 170.269 91.3921 169.978 91.4358C170.044 91.7959 170.402 93.9534 169 95.6764C167.569 97.433 164.897 98.0152 162.476 96.9812" stroke="#97A4F7" stroke-width="2" stroke-linecap="round" stroke-linejoin="round"/>
<path d="M118.766 16.7364C117.694 14.1418 118.185 11.6072 119.418 10.8648C120.84 10.0082 124.02 11.0733 125.616 14.453C125.866 14.7749 127.414 16.7935 126.92 17.3888C126.465 17.9381 124.213 17.35 123.658 16.084C122.791 14.1043 125.6 9.37735 129.53 9.23383C132.32 9.13173 134.637 11.3769 135.402 13.4744C135.848 14.698 135.984 16.4715 135.402 16.7364C134.785 17.0169 133.126 15.7137 133.118 14.453C133.105 12.3161 137.829 9.01071 141.599 10.5386C144.005 11.513 145.574 14.2726 145.514 17.3888" stroke="#97A4F7" stroke-width="2" stroke-linecap="round" stroke-linejoin="round"/>
<path fill-rule="evenodd" clip-rule="evenodd" d="M122.68 125.36C124.768 126.013 128.935 126.973 133.77 125.687C143.711 123.042 147.538 113.282 147.96 112.149C145.644 114.592 143.42 116.269 141.762 117.369C139.054 119.165 137.011 120.52 133.934 120.957C131.361 121.322 129.226 120.881 128.062 120.631C125.796 120.143 124.027 119.328 122.843 118.673C122.788 120.902 122.734 123.132 122.68 125.36Z" fill="#3C0378"/>
<path fill-rule="evenodd" clip-rule="evenodd" d="M195.585 192.068C196.555 195.549 197.97 198.287 199.173 200.223C203.04 200.465 217.383 200.902 228.205 190.763C231.202 187.955 233.28 184.943 234.729 182.282C230.846 184.102 221.259 187.933 209.285 185.87C202.79 184.751 197.808 182.28 194.606 180.325C194.327 183.01 194.231 187.211 195.585 192.068Z" fill="#D9DEFF"/>
<path fill-rule="evenodd" clip-rule="evenodd" d="M264.086 219.468C266.261 215.554 268.435 211.639 270.61 207.725C272.469 214.311 272.408 219.59 271.915 223.383C270.847 231.594 266.696 240.996 266.696 240.997C266.696 241 266.448 234.414 265.717 228.602C265.443 226.423 264.965 223.275 264.086 219.468Z" fill="#D9DEFF"/>
<path fill-rule="evenodd" clip-rule="evenodd" d="M174.056 217.837C173.43 219.611 170.904 227.395 174.708 235.778C177.318 241.528 181.585 244.65 183.516 245.89C182.85 243.602 182.234 240.861 181.885 237.735C181.417 233.553 181.56 229.886 181.885 226.971C180.852 226.171 179.741 225.202 178.623 224.035C176.527 221.849 175.066 219.656 174.056 217.837Z" fill="#D9DEFF"/>
<path fill-rule="evenodd" clip-rule="evenodd" d="M197.868 138.571C197.114 144.867 196.452 151.395 195.911 158.143C195.279 166.03 194.857 173.65 194.606 180.977C197.049 180.615 200.41 179.834 204.066 178.041C209.253 175.498 212.632 172.097 214.505 169.886C214.287 166.298 214.07 162.71 213.852 159.122C211.687 157.748 209.163 155.848 206.676 153.25C201.557 147.904 199.084 142.201 197.868 138.571Z" fill="#EFE9FD"/>
<path fill-rule="evenodd" clip-rule="evenodd" d="M234.402 161.731C234.294 164.232 234.185 166.733 234.076 169.234C240.383 171.843 246.689 174.453 252.996 177.063C254.618 172.123 256.193 165.586 256.584 157.817C257.251 144.55 254.152 133.896 251.691 127.48C251.922 135.626 250.112 141.824 248.755 145.421C247.126 149.741 245.205 154.644 240.274 158.469C238.046 160.197 235.888 161.175 234.402 161.731Z" fill="#EFE9FD"/>
<path d="M272.322 157.342C272.753 149.454 273.183 141.566 273.613 133.678C274.317 133.955 275.32 134.458 276.195 135.399C278.416 137.79 278.13 141.202 277.915 144.865C277.734 147.963 277.525 152.576 277.485 158.632" stroke="#3C0378" stroke-width="2" stroke-linecap="round" stroke-linejoin="round"/>
<path d="M271.426 160.59C270.705 163.802 269.884 169.49 271.426 176.247C272.462 180.785 274.221 184.306 275.667 186.686" stroke="#3C0378" stroke-width="2" stroke-linecap="round" stroke-linejoin="round"/>
<path d="M289.366 188.643C290.684 187.062 292.312 184.675 293.281 181.466C293.953 179.24 294.088 177.377 294.259 174.942C294.456 172.146 294.379 169.793 294.259 168.092" stroke="#3C0378" stroke-width="2" stroke-linecap="round" stroke-linejoin="round"/>
<path d="M280.886 174.616C282.032 175.146 283.79 176.127 285.453 177.878C286.666 179.157 287.789 180.34 288.062 182.119C288.522 185.114 286.223 187.538 285.779 187.99" stroke="#3C0378" stroke-width="2" stroke-linecap="round" stroke-linejoin="round"/>
<path d="M270.447 167.766C271.137 166.663 272.466 164.857 274.723 163.342C277.484 161.49 280.184 161.046 281.538 160.916C281.744 161.101 282.041 161.423 282.19 161.895C282.323 162.315 282.384 162.997 281.81 164.069C280.413 166.678 277.659 167.116 277.297 168.745C277.125 169.524 277.443 170.833 280.233 172.985" stroke="#3C0378" stroke-width="2" stroke-linecap="round" stroke-linejoin="round"/>
<path d="M279.255 156.675C280.453 156.167 283.367 155.123 287.084 155.697C291.059 156.311 293.632 158.418 294.586 159.285C295.13 161.351 295.673 163.417 296.217 165.483C294.586 167.548 292.955 169.615 291.324 171.68C287.736 171.246 284.148 170.81 280.56 170.376C281.321 168.527 282.082 166.679 282.843 164.83" stroke="#3C0378" stroke-width="2" stroke-linecap="round" stroke-linejoin="round"/>
<path d="M284.147 157.001L286.105 159.937C286.757 161.677 287.409 163.417 288.062 165.156L284.147 171.028" stroke="#3C0378" stroke-width="2" stroke-linejoin="round"/>
<path d="M289.366 157.654C289.91 158.415 290.454 159.176 290.997 159.937C291.432 161.894 291.867 163.852 292.302 165.809L288.388 171.68" stroke="#3C0378" stroke-width="2" stroke-linejoin="round"/>
<path d="M276.971 188.969C276.884 201.162 276.201 210.891 275.666 217.022C272.848 249.357 266.66 267.848 276.971 278.347C278.652 280.058 280.322 281.1 281.212 281.609C283.642 280.093 287.024 277.536 289.693 273.454C295.647 264.346 294.025 253.809 293.281 248.337C291.395 234.469 290.178 216.604 289.693 191.905" stroke="#3C0378" stroke-width="2" stroke-linecap="round" stroke-linejoin="round"/>
<path d="M214.015 159.285C214.476 162.795 214.769 166.854 214.667 171.354C214.597 174.424 214.353 177.263 214.015 179.835" stroke="#3C0378" stroke-width="2" stroke-linecap="round" stroke-linejoin="round"/>
<path fill-rule="evenodd" clip-rule="evenodd" d="M216.298 166.135C217.56 167.715 219.091 168.437 219.886 168.744C221.163 168.547 222.169 168.284 222.822 168.092C226.301 167.07 228.744 165.696 231.303 164.178C231.668 163.961 234.702 162.161 234.565 161.894C234.474 161.716 233.07 162.416 231.303 162.873C228.645 163.56 226.483 163.358 224.779 163.199C220.141 162.765 216.485 160.942 214.504 159.774C214.432 160.464 214.193 163.497 216.298 166.135Z" fill="#3C0378"/>
<path d="M212.384 172.333C210.954 173.683 209.12 175.18 206.839 176.573C202.748 179.071 198.86 180.235 196.074 180.814" stroke="#3C0378" stroke-width="2" stroke-linecap="round" stroke-linejoin="round"/>
<path d="M198.031 182.771C201.863 184.382 207.204 186.047 213.689 186.359C229.837 187.137 241.654 178.975 245.656 175.921" stroke="#3C0378" stroke-width="2" stroke-linecap="round" stroke-linejoin="round"/>
<path d="M186.94 86.2163C184.485 87.708 181.063 90.252 178.459 94.3713C173.77 101.79 174.558 109.853 174.871 114.269C175.877 128.488 174.761 144.624 172.261 155.696C168.176 173.794 160.262 178.958 162.475 193.209C163.316 198.619 165.232 202.866 166.716 205.605" stroke="#3C0378" stroke-width="2" stroke-linecap="round" stroke-linejoin="round"/>
<path d="M171.935 186.033C171.328 188.309 170.621 192.139 171.283 196.798C172.119 202.682 174.708 206.838 176.176 208.867" stroke="#3C0378" stroke-width="2" stroke-linecap="round" stroke-linejoin="round"/>
<path d="M181.722 191.905C181.518 193.339 180.941 198.655 184.331 203.648C186.3 206.547 188.776 208.113 190.203 208.867" stroke="#3C0378" stroke-width="2" stroke-linecap="round" stroke-linejoin="round"/>
<path d="M198.683 115.9C198.549 128.925 197.603 139.48 196.726 146.889C195.543 156.893 195.176 164.867 194.443 180.814C194.327 183.337 194.165 187.65 195.748 192.883C197.579 198.94 200.855 203.285 203.25 205.931" stroke="#3C0378" stroke-width="2" stroke-linecap="round" stroke-linejoin="round"/>
<path d="M251.202 121.772C252.492 130.091 251.257 136.603 250.223 140.365C248.721 145.825 245.709 156.782 235.87 161.242C230.608 163.627 225.714 163.102 223.801 162.873C213.679 161.66 207.548 154.322 204.881 151.13C202.809 148.65 199.688 144.252 197.705 137.756" stroke="#3C0378" stroke-width="2" stroke-linecap="round" stroke-linejoin="round"/>
<path d="M234.565 161.895C234.229 163.334 233.951 165.096 233.913 167.114C233.845 170.666 234.549 173.591 235.217 175.595" stroke="#3C0378" stroke-width="2" stroke-linecap="round" stroke-linejoin="round"/>
<path d="M236.196 170.702C237.877 171.596 239.837 172.504 242.068 173.311C243.563 173.852 244.985 174.278 246.308 174.616" stroke="#3C0378" stroke-width="2" stroke-linecap="round" stroke-linejoin="round"/>
<path d="M238.316 89.3154C239.601 90.4708 243.667 94.4181 244.85 101.059C246.005 107.546 243.688 112.55 242.89 114.106" stroke="#3C0378" stroke-width="2" stroke-linecap="round" stroke-linejoin="round"/>
<path d="M231.89 93.4189C232.667 95.1481 234.088 98.95 233.535 103.809C232.779 110.46 228.832 114.627 227.577 115.854" stroke="#3C0378" stroke-width="2" stroke-linecap="round" stroke-linejoin="round"/>
<path d="M219.234 93.7192C219.686 95.9064 220.719 102.363 217.277 109.051C215.464 112.572 213.066 114.884 211.405 116.227" stroke="#3C0378" stroke-width="2" stroke-linecap="round" stroke-linejoin="round"/>
<path d="M207.491 101.548C206.899 105.071 205.84 109.334 203.903 113.943C202.872 116.394 201.751 118.569 200.641 120.467" stroke="#3C0378" stroke-width="2" stroke-linecap="round" stroke-linejoin="round"/>
<path d="M233.261 110.355C234.051 110.214 234.924 110.097 235.87 110.029C237.196 109.934 238.403 109.953 239.458 110.029" stroke="#3C0378" stroke-width="2" stroke-linecap="round" stroke-linejoin="round"/>
<path d="M208.144 112.965C208.67 112.576 209.67 111.945 211.079 111.66C212.341 111.405 213.394 111.534 214.015 111.66" stroke="#3C0378" stroke-width="2" stroke-linecap="round" stroke-linejoin="round"/>
<path d="M212.71 121.772V127.644" stroke="#3C0378" stroke-width="2" stroke-linecap="round" stroke-linejoin="round"/>
<path d="M238.806 120.467V126.991" stroke="#3C0378" stroke-width="2" stroke-linecap="round" stroke-linejoin="round"/>
<path d="M226.411 122.75C226.227 123.339 226.02 124.251 226.084 125.36C226.116 125.905 226.228 126.75 226.737 127.97C227.898 130.755 230.24 133.37 230.977 134.167L227.063 139.06" stroke="#3C0378" stroke-width="2" stroke-linecap="round" stroke-linejoin="round"/>
<path d="M221.844 148.194C222.728 148.526 224.354 149.005 226.411 148.846C228.773 148.664 230.483 147.735 231.303 147.215" stroke="#3C0378" stroke-width="2" stroke-linecap="round" stroke-linejoin="round"/>
<path d="M194.117 78.7137C194.52 74.7181 195.927 72.1187 197.053 70.5588C202.342 63.235 214.37 60.9379 227.063 65.0134" stroke="#3C0378" stroke-width="2" stroke-linecap="round" stroke-linejoin="round"/>
<path d="M235.544 67.9492C239.042 69.1787 244.433 71.6689 249.244 76.7566C251.377 79.0112 257.649 85.6441 258.052 95.676C258.228 100.079 257.214 103.638 256.421 105.788" stroke="#3C0378" stroke-width="2" stroke-linecap="round" stroke-linejoin="round"/>
<path d="M255.769 116.553C256.094 118.617 256.617 121.678 257.4 125.36C259.1 133.357 260.345 136.365 262.619 144.932C265.109 154.314 266.354 159.005 266.533 163.851C266.779 170.499 265.6 175.961 264.576 179.509" stroke="#3C0378" stroke-width="2" stroke-linecap="round" stroke-linejoin="round"/>
<path d="M157.909 209.846C156.936 214.368 155.966 217.959 155.3 220.284C152.168 231.218 150.61 232.174 150.407 237.573C150.329 239.626 150.48 241.452 149.428 243.77C147.847 247.255 145.027 248.59 145.514 249.642C146.037 250.775 149.71 250.097 150.407 249.968C152.943 249.499 154.831 248.438 155.952 247.685C155.943 248.005 155.901 250.946 157.909 252.251C160.718 254.077 164.579 250.779 164.759 250.62C166.87 248.77 168.061 245.681 167.369 245.075C166.788 244.567 164.553 245.512 164.107 247.032C163.586 248.808 165.736 250.593 167.043 251.273C170.023 252.823 173.456 251.016 174.219 250.62C175.274 250.073 176.032 249.436 176.502 248.989C176.656 249.249 177.475 250.578 179.112 250.947C180.652 251.293 182.309 250.654 183.353 249.316" stroke="#97A4F7" stroke-width="2" stroke-linecap="round" stroke-linejoin="round"/>
<path d="M173.566 216.696C174.65 218.858 176.207 221.379 178.459 223.872C179.226 224.72 179.993 225.479 180.743 226.156" stroke="#97A4F7" stroke-width="2" stroke-linecap="round" stroke-linejoin="round"/>
<path d="M183.679 218.653C182.758 221.817 181.87 226.036 181.722 231.048C181.532 237.449 182.621 242.737 183.679 246.38" stroke="#97A4F7" stroke-width="2" stroke-linecap="round" stroke-linejoin="round"/>
<path d="M271.099 206.583C269.142 210.063 267.185 213.542 265.228 217.022" stroke="#97A4F7" stroke-width="2" stroke-linecap="round" stroke-linejoin="round"/>
<path d="M260.335 206.91C262.723 213.271 264.086 218.888 264.902 223.22C265.82 228.093 267.117 234.977 266.533 243.77C266.09 250.431 265.025 251.311 264.902 257.144C264.758 263.962 266.071 269.527 267.185 273.128" stroke="#97A4F7" stroke-width="2" stroke-linecap="round" stroke-linejoin="round"/>
<path d="M292.303 208.867C294.816 216.289 295.299 220.61 295.239 223.219C295.21 224.454 295.038 226.268 295.891 228.439C296.9 231.006 298.593 232.165 298.174 233.005C297.935 233.485 297.008 233.858 293.934 233.332" stroke="#97A4F7" stroke-width="2" stroke-linecap="round" stroke-linejoin="round"/>
<path d="M247.939 175.269C253.153 176.869 259.348 179.305 265.88 183.097C269.197 185.023 272.127 187.023 274.688 188.969" stroke="#97A4F7" stroke-width="2" stroke-linecap="round" stroke-linejoin="round"/>
<path d="M122.517 100.08C122.517 100.08 131.324 105.299 141.11 100.08" stroke="#3C0378" stroke-width="2" stroke-linecap="round" stroke-linejoin="round"/>
</g>
</svg>
