<svg width="160" height="140" viewBox="0 0 160 140" fill="none" xmlns="http://www.w3.org/2000/svg">
<path d="M15 70H40V50C40 39.0625 31.25 30 20 30H17.5C13.4375 30 10 26.875 10 22.5V7.5C10 3.4375 13.4375 0 17.5 0H20C47.8125 0 70 22.5 70 50V125C70 133.438 63.4375 140 55 140H15C6.875 140 0 133.438 0 125V85C0 76.875 6.875 70 15 70ZM105 70H130V50C130 39.0625 121.25 30 110 30H107.5C103.438 30 100 26.875 100 22.5V7.5C100 3.4375 103.438 0 107.5 0H110C137.812 0 160 22.5 160 50V125C160 133.438 153.438 140 145 140H105C96.875 140 90 133.438 90 125V85C90 76.875 96.875 70 105 70Z" fill="#D9DEFF"/>
</svg>
