<svg width="160" height="140" viewBox="0 0 160 140" fill="none" xmlns="http://www.w3.org/2000/svg">
<path d="M145 70H120V50C120 39.0625 128.75 30 140 30H142.5C146.562 30 150 26.875 150 22.5V7.5C150 3.4375 146.562 0 142.5 0H140C112.188 0 90 22.5 90 50V125C90 133.438 96.5625 140 105 140H145C153.125 140 160 133.438 160 125V85C160 76.875 153.125 70 145 70ZM55 70H30V50C30 39.0625 38.75 30 50 30H52.5C56.5625 30 60 26.875 60 22.5V7.5C60 3.4375 56.5625 0 52.5 0H50C22.1875 0 0 22.5 0 50V125C0 133.438 6.5625 140 15 140H55C63.125 140 70 133.438 70 125V85C70 76.875 63.125 70 55 70Z" fill="#D9DEFF"/>
</svg>
